<svg width="16" height="16" viewBox="0 0 16 16" fill="none" xmlns="http://www.w3.org/2000/svg">
<path d="M7.889 0.485045H5.923C5.42986 0.457045 4.93644 0.53517 4.47607 0.714148C4.0157 0.893125 3.59908 1.16879 3.25434 1.52253C2.90961 1.87627 2.64478 2.29986 2.47773 2.76469C2.31068 3.22952 2.2453 3.72479 2.286 4.21705V5.93705H0.309C0.227048 5.93705 0.148452 5.9696 0.0905037 6.02755C0.032555 6.0855 0 6.16409 0 6.24605V8.73905C0 8.821 0.032555 8.89959 0.0905037 8.95754C0.148452 9.01549 0.227048 9.04805 0.309 9.04805H2.286V15.338C2.286 15.42 2.31856 15.4986 2.3765 15.5565C2.43445 15.6145 2.51305 15.647 2.595 15.647H5.174C5.25595 15.647 5.33455 15.6145 5.3925 15.5565C5.45044 15.4986 5.483 15.42 5.483 15.338V9.04905H7.795C7.83558 9.04905 7.87576 9.04105 7.91325 9.02552C7.95074 9.01 7.9848 8.98724 8.0135 8.95854C8.04219 8.92985 8.06495 8.89578 8.08048 8.85829C8.09601 8.8208 8.104 8.78062 8.104 8.74005V6.24705C8.104 6.20647 8.09601 6.16629 8.08048 6.1288C8.06495 6.09131 8.04219 6.05724 8.0135 6.02855C7.9848 5.99986 7.95074 5.97709 7.91325 5.96157C7.87576 5.94604 7.83558 5.93805 7.795 5.93805H5.484V4.47905C5.484 3.77905 5.651 3.42205 6.564 3.42205H7.889C7.97095 3.42205 8.04955 3.38949 8.1075 3.33154C8.16545 3.27359 8.198 3.195 8.198 3.11305V0.797045C8.1984 0.756215 8.1907 0.715711 8.17535 0.677874C8.16 0.640038 8.1373 0.605619 8.10856 0.576607C8.07983 0.547595 8.04563 0.524566 8.00795 0.50885C7.97026 0.493134 7.92983 0.485043 7.889 0.485045Z" fill="#009DEB"/>
</svg>
