<svg width="100" height="62" viewBox="0 0 100 62" fill="none" xmlns="http://www.w3.org/2000/svg">
<g clip-path="url(#clip0_76_2)">
<path fill-rule="evenodd" clip-rule="evenodd" d="M11.5802 3.16458C18.2553 -2.86973 27.9104 0.346836 32.6117 7.61005C33.44 8.8876 34.2295 10.2786 35.1452 11.7897C35.8797 12.944 36.7048 14.348 37.5946 15.9011V29.497C37.271 28.9522 36.9475 28.4594 36.6951 28.0346C34.4301 24.3317 32.1652 20.4893 31.4016 18.8972L31.3757 25.4341C31.3951 28.6085 31.3757 32.2434 31.3434 35.1843L31.3239 40.3918H28.0883L28.0624 13.4531C27.548 11.5529 24.4677 7.49981 22.9372 6.31954C19.3069 3.51477 16.123 2.38962 11.5479 3.16458H11.5802ZM44.2599 27.4834C46.7837 31.6597 49.3916 35.5216 51.7731 37.814V9.82469H55.0443V40.5669C57.3448 42.4022 61.2437 42.9631 64.6152 42.6843C62.5477 44.1564 59.5029 45.6512 56.3094 45.9819C51.6889 46.4585 47.3888 42.801 44.247 39.0981L44.2599 27.4834Z" fill="#00AEEF"/>
<path fill-rule="evenodd" clip-rule="evenodd" d="M38.6267 38.7998H43.231V23.2098H50.8897V21.4102H43.231V8.31051H58.5096V6.51416H38.6267V38.7998Z" fill="#EC008C"/>
<path fill-rule="evenodd" clip-rule="evenodd" d="M0 50.7906H0.122955C0.614769 50.7906 0.954511 50.8522 0.954511 51.4391V61.0466C0.954511 61.7113 0.491814 61.6951 0 61.6951V61.8508H2.23581V61.6951H1.97373C1.52721 61.6951 1.28131 61.5265 1.28131 61.0466V52.2919L5.38731 60.583C5.8953 61.6368 6.468 61.9902 7.14424 61.9902C7.33149 62.0005 7.5188 61.9711 7.69399 61.9041C7.86918 61.837 8.02833 61.7338 8.16109 61.6011C8.29384 61.4683 8.39723 61.3091 8.46454 61.1337C8.53184 60.9583 8.56155 60.7706 8.55174 60.583V51.4391C8.55174 50.7419 8.98208 50.7744 9.50625 50.7906V50.6349H7.27043V50.7906H7.39339C7.90138 50.7906 8.22494 50.8522 8.22494 51.4391V60.583C8.22494 60.8586 8.11817 61.2768 7.73313 61.2768C7.34809 61.2768 7.11513 60.9072 6.76244 60.1939L1.96079 50.6349H0.0194179V50.7906H0ZM11.2373 59.714C11.2373 57.3631 14.0135 57.4442 14.0135 56.3126C14.0135 55.1809 11.2826 55.7711 11.2826 54.9507C11.2826 54.4708 12.208 54.0525 13.1981 54.0525C14.6315 54.0525 15.463 54.9507 15.463 56.9935V59.7464C14.7544 60.4111 13.4731 61.2931 12.5316 61.2931C11.865 61.2931 11.2373 60.8294 11.2373 59.714ZM13.4278 56.5914C13.4278 56.7438 13.0428 56.8703 13.0428 56.8703C11.5609 57.3631 9.80716 57.8884 9.80716 59.8534C9.80716 61.3255 10.8102 61.9416 11.7485 61.9416C12.9231 61.9416 14.6056 60.9688 15.4857 60.1647C15.4857 61.2931 15.8416 61.8637 17.0452 61.8637C17.2458 61.8637 17.5532 61.8637 17.8768 61.8637V61.7081H17.6147C17.1358 61.7081 16.9223 61.5687 16.9223 61.0596V57.0065C16.9223 54.808 15.7316 53.6959 13.7093 53.6959C12.1368 53.6959 10.8846 54.3444 10.8846 55.382C10.8846 56.5104 12.4765 56.3709 13.0913 56.4488C13.169 56.465 13.4472 56.4941 13.4472 56.6044L13.4278 56.5914ZM18.8701 52.24L20.3035 51.4358V54.0298C20.5081 54.0625 20.7145 54.083 20.9215 54.0914C21.3321 54.0455 21.7361 53.952 22.1252 53.8126C22.2028 53.8126 22.2028 53.9196 22.2028 53.9196C22.2028 54.2925 21.2936 54.3703 20.9668 54.3703C20.7447 54.3628 20.5232 54.3422 20.3035 54.3087V60.557C20.3035 60.9591 20.4135 61.5622 20.9215 61.5622C21.2833 61.535 21.6206 61.3689 21.8631 61.0985L21.9245 61.2055C21.7536 61.4569 21.5231 61.6618 21.2538 61.8022C20.9845 61.9425 20.6847 62.0138 20.3812 62.0097C19.4558 62.0097 18.8701 61.2995 18.8701 60.1225V54.2049C18.6859 54.1767 18.4999 54.1615 18.3136 54.1595C17.9286 54.1595 17.6341 54.2828 17.4173 54.2828C17.2944 54.2828 17.2782 54.2341 17.2782 54.1725C17.2782 53.5694 18.8701 54.821 18.8701 52.227V52.24ZM28.4378 60.223C28.4251 60.4393 28.4583 60.6558 28.5351 60.8582C28.6119 61.0607 28.7306 61.2446 28.8835 61.3977C29.0363 61.5509 29.2198 61.6699 29.4218 61.7468C29.6239 61.8238 29.8399 61.857 30.0557 61.8443H30.8419V61.6886H30.719C30.2239 61.6886 29.8842 61.6432 29.8842 61.0401V53.8321H27.4769V54.0039H27.7228C28.2016 54.0039 28.4314 54.1271 28.4314 54.6524V60.236L28.4378 60.223ZM27.9622 59.2795C27.9622 57.9825 27.2504 57.4539 26.4156 57.4539C25.5808 57.4539 25.1375 57.963 25.2734 58.7996L25.1375 58.8288C24.9207 57.9176 25.3672 57.1426 26.4318 57.1426C27.451 57.1426 28.2534 57.8106 28.2534 59.2308C28.2534 60.8877 27.1565 61.9999 25.6131 61.9999C24.1312 61.9999 23.222 60.9656 23.222 59.1692V54.6297C23.222 54.1174 23.0052 53.9812 22.5264 53.9812H22.2643V53.8094H24.6554V59.1465C24.6554 60.5862 25.1666 61.3903 26.1244 61.3903C26.9106 61.3903 27.946 60.8034 27.946 59.2568L27.9622 59.2795ZM31.1105 54.0039C31.6346 54.0039 32.0811 53.9585 32.0811 54.6524V61.0564C32.0811 61.7373 31.6476 61.7049 31.1105 61.7049V61.8605H34.4593V61.7049C33.9352 61.7211 33.4886 61.7503 33.4886 61.0564V57.4377C33.4886 55.3658 34.2458 54.0493 35.1873 54.0493C36.3748 54.0493 36.006 56.0597 36.9637 56.0597C37.2711 56.0597 37.4717 55.8748 37.4717 55.4274C37.4717 54.3898 36.4395 53.6797 35.4494 53.6797C34.5402 53.6797 33.8607 54.299 33.4886 55.3009V53.8158H31.0975V53.9877L31.1105 54.0039ZM38.7368 59.7107C38.7368 57.3599 41.513 57.441 41.513 56.3093C41.513 55.1777 38.7821 55.7678 38.7821 54.9475C38.7821 54.4676 39.7075 54.0493 40.6976 54.0493C42.131 54.0493 42.9625 54.9475 42.9625 56.9903V59.7431C42.2507 60.4079 40.9694 61.2898 40.0278 61.2898C39.3645 61.2898 38.7336 60.8261 38.7336 59.7107H38.7368ZM40.9273 56.5882C40.9273 56.4779 40.6491 56.4488 40.5714 56.4325C39.9566 56.3547 38.3647 56.4941 38.3647 55.3658C38.3647 54.3444 39.6169 53.6797 41.1894 53.6797C43.2117 53.6797 44.4024 54.7918 44.4024 56.9903V61.0434C44.4024 61.5525 44.6159 61.6919 45.0948 61.6919H45.3569V61.8475C45.0333 61.8475 44.7259 61.8475 44.5253 61.8475C43.3217 61.8475 42.9658 61.2768 42.9658 60.1485C42.0857 60.9526 40.4032 61.9253 39.2286 61.9253C38.3032 61.9253 37.2873 61.3093 37.2873 59.8372C37.2873 57.8722 39.0474 57.3469 40.5229 56.8541C40.5229 56.8541 40.9079 56.7276 40.9079 56.5752L40.9273 56.5882ZM45.5284 50.7711C46.0526 50.7711 46.4991 50.7387 46.4991 51.4196V61.0434C46.4991 61.7243 46.0655 61.6919 45.5284 61.6919V61.8475H48.8772V61.6919C48.3531 61.7081 47.9066 61.7373 47.9066 61.0434V50.6155H45.5154L45.5284 50.7711Z" fill="#00AEEF"/>
<path fill-rule="evenodd" clip-rule="evenodd" d="M57.9629 56.2607C58.5276 55.9439 59.1706 55.7944 59.8169 55.8295C60.5708 55.8295 60.959 55.9689 60.959 56.277C60.959 56.585 60.6193 56.7568 59.846 56.7568C59.1843 56.7713 58.5319 56.5994 57.9629 56.2607ZM55.2611 59.0785V61.0434C55.2158 61.7244 54.8308 61.6919 54.2904 61.6919V61.8476H57.6555V61.6919C57.1313 61.7081 56.7463 61.7373 56.6848 61.0434V59.4222C56.6848 58.1252 56.9469 57.2238 57.4549 56.6369C58.1431 56.8826 58.8695 57.0033 59.6001 56.9935C60.697 56.9935 61.2535 56.7763 61.2535 56.264C61.2535 55.7517 60.6808 55.5863 59.7392 55.5863C58.9926 55.5743 58.2502 55.6996 57.5487 55.9559C56.8854 55.3074 56.5586 54.3347 56.5586 53.2193V51.8866C56.5411 51.7633 56.5519 51.6376 56.5903 51.5191C56.6287 51.4006 56.6937 51.2925 56.7801 51.203C56.8666 51.1135 56.9724 51.045 57.0893 51.0028C57.2063 50.9605 57.3313 50.9456 57.4549 50.9592H59.3542C60.8684 50.9592 61.3764 51.8866 61.3764 53.2938H61.6223V50.635H54.1804V50.7906H54.3034C54.7822 50.7906 55.1382 50.8652 55.1382 51.4391V53.5597C55.1346 54.1283 55.2866 54.687 55.5775 55.1752C55.8684 55.6633 56.2871 56.0623 56.7883 56.3288C56.3078 56.6062 55.9109 57.0083 55.6393 57.4928C55.3676 57.9773 55.2314 58.5262 55.2449 59.0817L55.2611 59.0785ZM62.0074 54.004C62.5315 54.004 62.9781 53.9586 62.9781 54.6525V61.0564C62.9781 61.7373 62.5445 61.7049 62.0074 61.7049V61.8606H65.3562V61.7049C64.8321 61.7211 64.4017 61.7503 64.4017 61.0564V53.8321H62.0074V54.004ZM62.6545 51.4813C62.6468 51.6161 62.6667 51.7511 62.7129 51.878C62.759 52.0049 62.8306 52.121 62.9232 52.2192C63.0157 52.3174 63.1273 52.3957 63.251 52.4491C63.3748 52.5026 63.5082 52.5302 63.643 52.5302C63.7778 52.5302 63.9111 52.5026 64.0349 52.4491C64.1587 52.3957 64.2703 52.3174 64.3628 52.2192C64.4554 52.121 64.5269 52.0049 64.5731 51.878C64.6193 51.7511 64.6392 51.6161 64.6315 51.4813C64.6392 51.3464 64.6193 51.2114 64.5731 51.0845C64.5269 50.9576 64.4554 50.8415 64.3628 50.7433C64.2703 50.6451 64.1587 50.5669 64.0349 50.5134C63.9111 50.46 63.7778 50.4324 63.643 50.4324C63.5082 50.4324 63.3748 50.46 63.251 50.5134C63.1273 50.5669 63.0157 50.6451 62.9232 50.7433C62.8306 50.8415 62.759 50.9576 62.7129 51.0845C62.6667 51.2114 62.6468 51.3464 62.6545 51.4813ZM66.7573 52.24L68.1809 51.4391V54.0331C68.7955 54.1631 69.4356 54.0868 70.0026 53.8159C70.0802 53.8159 70.0802 53.9229 70.0802 53.9229C70.0802 54.2958 69.171 54.3736 68.8475 54.3736C68.6243 54.3661 68.4017 54.3455 68.1809 54.312V60.5603C68.1809 60.9624 68.2909 61.5655 68.7989 61.5655C69.1607 61.5383 69.498 61.3722 69.7405 61.1018L69.802 61.2088C69.631 61.4601 69.4006 61.6651 69.1312 61.8055C68.8619 61.9458 68.5621 62.0171 68.2586 62.0129C67.3332 62.0129 66.7476 61.3028 66.7476 60.1258V54.205C66.5633 54.1768 66.3774 54.1616 66.191 54.1596C65.806 54.1596 65.5116 54.2828 65.2948 54.2828C65.1718 54.2828 65.1556 54.2342 65.1556 54.1726C65.1556 53.5695 66.7476 54.8211 66.7476 52.2271L66.7573 52.24ZM70.2614 54.004H70.3844C70.8794 54.004 71.2159 54.0493 71.2159 54.6525V61.0564C71.2159 61.7373 70.7856 61.7049 70.2614 61.7049V61.8606H73.6103V61.7049H73.3644C72.8855 61.7049 72.6526 61.5655 72.6526 61.0564V53.8321H70.2517V54.004H70.2614ZM73.1314 56.4002C73.1314 57.6972 73.8433 58.2257 74.6748 58.2257C75.5064 58.2257 75.9691 57.7166 75.817 56.8801L75.9561 56.8509C76.1729 57.762 75.7264 58.5532 74.6619 58.5532C73.6588 58.5532 72.8402 57.8723 72.8402 56.4488C72.8402 54.7919 73.9339 53.6797 75.4773 53.6797C76.9592 53.6797 77.8716 54.7141 77.8716 56.5104V61.0499C77.8716 61.559 78.0884 61.6984 78.5673 61.6984H78.8294V61.8541H75.4514V61.6984C75.9626 61.6984 76.4221 61.7309 76.4221 61.0499V56.5104C76.4221 55.0707 75.9141 54.2666 74.9563 54.2666C74.1701 54.2666 73.1347 54.8535 73.1347 56.4002H73.1314ZM80.6866 58.8969C80.6096 58.4941 80.5728 58.0846 80.5766 57.6745C80.5766 55.5085 81.379 53.8678 82.6474 53.8678C83.5728 53.8678 84.1293 54.7659 84.1293 56.251C84.1293 58.9715 82.2138 59.3898 80.6866 58.8969ZM79.127 57.8593C79.127 60.0545 80.3922 62.0032 82.5082 62.0032C83.1519 62.0027 83.7806 61.8078 84.3121 61.444C84.8437 61.0802 85.2535 60.5643 85.4883 59.9637L85.3782 59.8534C85.0838 60.2263 84.3461 61.4941 83.0162 61.4941C81.7673 61.4941 81.1169 60.3657 80.7513 59.0979C83.3592 60.2425 85.3038 58.8969 85.3038 56.5039C85.3038 54.7238 84.2231 53.6732 82.6636 53.6732C80.596 53.6732 79.1044 55.4987 79.1044 57.8658L79.127 57.8593ZM86.6757 61.8508H92.3575V59.1887H92.1083C92.1083 60.8586 91.3836 61.5266 90.0861 61.5266H88.9763C88.4035 61.5266 88.4359 61.2315 88.575 60.596C89.0215 58.6018 91.0891 57.548 91.9239 54.6103C91.9815 54.4334 92.0828 54.2739 92.2183 54.1466C92.3093 54.0701 92.4156 54.0141 92.53 53.9822C92.6444 53.9503 92.7643 53.9434 92.8816 53.9618V53.8062H86.2422V56.465H86.4945C86.4945 54.7951 87.2031 54.1304 88.5168 54.1304H89.6266C90.1993 54.1304 90.2123 54.4547 90.0116 55.0578C89.3483 57.1946 87.187 58.7088 86.679 61.0467V61.8508H86.6757ZM93.7941 61.8508H99.4758V59.1887H99.2299C99.2299 60.8586 98.5019 61.5266 97.2077 61.5266H96.0946C95.5251 61.5266 95.5543 61.2315 95.6934 60.596C96.1399 58.6018 98.2107 57.548 99.0423 54.6103C99.0999 54.4334 99.2012 54.2739 99.3367 54.1466C99.4277 54.0701 99.5339 54.0141 99.6484 53.9822C99.7628 53.9503 99.8827 53.9434 100 53.9618V53.8062H93.3605V56.465H93.6129C93.6129 54.7951 94.3215 54.1304 95.6352 54.1304H96.745C97.3177 54.1304 97.3339 54.4547 97.1332 55.0578C96.4699 57.1946 94.3086 58.7088 93.7973 61.0467L93.7941 61.8508Z" fill="#EC008C"/>
</g>
<defs>
<clipPath id="clip0_76_2">
<rect width="100" height="62" fill="white"/>
</clipPath>
</defs>
</svg>
