<svg width="15" height="21" viewBox="0 0 15 21" fill="none" xmlns="http://www.w3.org/2000/svg">
<path d="M13.8279 8.13308C13.8297 9.09363 13.6137 10.0421 13.196 10.9071C12.158 13.0461 7.42896 19.6621 7.42896 19.6621C7.42896 19.6621 2.80996 13.1211 1.73896 11.0621C1.28433 10.1987 1.0327 9.243 1.00318 8.26769C0.973663 7.29238 1.16703 6.32318 1.56861 5.43389C1.97019 4.5446 2.56939 3.75868 3.32056 3.13592C4.07174 2.51315 4.95515 2.06998 5.90345 1.84014C6.85175 1.6103 7.83997 1.59986 8.79291 1.80959C9.74586 2.01933 10.6384 2.44373 11.4026 3.05047C12.1668 3.65721 12.7824 4.43031 13.2027 5.31091C13.623 6.1915 13.8368 7.15736 13.8279 8.13308Z" stroke="#009DEB" stroke-width="1.5" stroke-miterlimit="10" stroke-linecap="square"/>
<path d="M9.68108 8.49838C9.97595 7.25488 9.20692 6.00778 7.96342 5.71291C6.71992 5.41804 5.47282 6.18706 5.17795 7.43057C4.88308 8.67407 5.6521 9.92117 6.89561 10.216C8.13911 10.5109 9.38621 9.74188 9.68108 8.49838Z" stroke="#009DEB" stroke-width="1.5" stroke-miterlimit="10" stroke-linecap="square"/>
</svg>
