<svg width="13" height="20" viewBox="0 0 13 20" fill="none" xmlns="http://www.w3.org/2000/svg">
<path d="M4.36405 7.11907C4.25605 6.48707 4.36405 6.37108 4.36405 6.37108L5.85806 5.39309C6.04689 5.27916 6.1883 5.101 6.25644 4.89126C6.32458 4.68151 6.31485 4.45424 6.22904 4.25109L5.07303 1.52407C4.99176 1.33213 4.84352 1.17629 4.65585 1.08559C4.46819 0.994888 4.25396 0.975526 4.05307 1.03109L2.94406 1.34108C2.84659 1.36609 2.75323 1.40517 2.66702 1.45708C0.0510246 3.10008 0.891045 7.71707 2.60105 11.7571C4.26405 15.6891 7.03503 19.7241 10.055 18.8871C10.141 18.8626 10.2231 18.8263 10.299 18.7791L11.31 18.1891C11.4905 18.0843 11.6264 17.9172 11.6924 17.7193C11.7583 17.5213 11.7497 17.3061 11.6681 17.1141L10.515 14.3901C10.4296 14.1871 10.274 14.0216 10.0766 13.9239C9.87918 13.8263 9.65324 13.8029 9.44003 13.8581L7.69705 14.2491C7.69705 14.2491 7.07302 14.2241 5.51102 10.5271C5.10386 9.60297 4.76044 8.65208 4.48306 7.68108C4.42506 7.45908 4.38306 7.27406 4.35806 7.12706" stroke="#009DEB" stroke-width="1.5" stroke-miterlimit="10" stroke-linecap="square"/>
</svg>
