<svg width="16" height="16" viewBox="0 0 16 16" fill="none" xmlns="http://www.w3.org/2000/svg">
<path d="M14.8187 1.44776C14.5807 1.55326 14.3358 1.64246 14.0857 1.71476C14.3839 1.37776 14.6087 0.982371 14.7457 0.553761C14.7607 0.506491 14.761 0.455794 14.7465 0.408367C14.732 0.360941 14.7035 0.319017 14.6647 0.288136C14.6259 0.257255 14.5787 0.23887 14.5292 0.235411C14.4798 0.231952 14.4304 0.24358 14.3877 0.268761C13.8586 0.582929 13.2827 0.810468 12.6817 0.942761C12.2236 0.494221 11.6433 0.190893 11.0136 0.0708105C10.3838 -0.0492725 9.73262 0.0192334 9.14163 0.267739C8.55064 0.516244 8.04617 0.933687 7.69146 1.46773C7.33676 2.00178 7.1476 2.62865 7.14772 3.26976C7.14778 3.41052 7.1568 3.55114 7.17472 3.69076C6.06709 3.59223 4.99039 3.27303 4.00803 2.75196C3.02567 2.2309 2.15752 1.51851 1.45472 0.656761C1.4297 0.626377 1.39772 0.602467 1.36151 0.587057C1.32529 0.571647 1.28589 0.565191 1.24665 0.568232C1.20741 0.571273 1.16948 0.583722 1.13607 0.604529C1.10266 0.625335 1.07475 0.653886 1.05472 0.687761C0.716432 1.2703 0.566916 1.94332 0.626725 2.6143C0.686534 3.28527 0.952732 3.92124 1.38872 4.43476C1.23801 4.38249 1.09213 4.31725 0.952715 4.23976C0.915905 4.21951 0.874505 4.20907 0.832494 4.20943C0.790482 4.2098 0.749271 4.22096 0.712818 4.24185C0.676365 4.26273 0.645897 4.29265 0.624338 4.32871C0.60278 4.36477 0.590857 4.40576 0.589715 4.44776C0.589715 4.46176 0.589715 4.47676 0.589715 4.49076C0.590672 5.05534 0.737922 5.61003 1.01711 6.10076C1.29629 6.59148 1.69788 7.00147 2.18271 7.29076C2.09971 7.28276 2.01771 7.27076 1.93472 7.25476C1.89304 7.24688 1.85004 7.24995 1.80991 7.26367C1.76978 7.2774 1.7339 7.3013 1.70578 7.33305C1.67766 7.3648 1.65827 7.4033 1.64949 7.44479C1.64071 7.48628 1.64286 7.52935 1.65572 7.56976C1.82861 8.10961 2.13953 8.59492 2.55768 8.97764C2.97583 9.36036 3.48671 9.62721 4.03972 9.75176C3.1174 10.3297 2.05017 10.6345 0.961715 10.6308C0.731464 10.6309 0.501402 10.6176 0.272715 10.5908C0.217841 10.5845 0.162465 10.597 0.115572 10.6262C0.0686792 10.6553 0.0330194 10.6995 0.014378 10.7515C-0.0042634 10.8035 -0.00479277 10.8602 0.0128758 10.9126C0.0305443 10.9649 0.0653742 11.0097 0.111715 11.0398C1.52799 11.9489 3.17575 12.4317 4.85872 12.4308C6.09319 12.459 7.31885 12.2163 8.44933 11.7195C9.57981 11.2228 10.5876 10.4842 11.4017 9.55576C12.8462 7.91297 13.6512 5.80521 13.6697 3.61776C13.6697 3.52876 13.6697 3.43776 13.6697 3.34876C14.2384 2.92003 14.7307 2.39837 15.1257 1.80576C15.1545 1.76185 15.1683 1.70988 15.1653 1.65749C15.1623 1.6051 15.1425 1.55506 15.1089 1.51475C15.0753 1.47443 15.0297 1.44597 14.9787 1.43355C14.9277 1.42113 14.8741 1.42541 14.8257 1.44576L14.8187 1.44776Z" fill="#009DEB"/>
</svg>
